<svg xmlns="http://www.w3.org/2000/svg" viewBox="0 0 475.48 101.72"><defs><style>.cls-1{fill:#7fbce7;}.cls-2{fill:#343a40;}.cls-3{fill:#010101;}.cls-4,.cls-8{fill:none;}.cls-4,.cls-6,.cls-8{stroke:#231f20;}.cls-4{stroke-width:6px;}.cls-5{fill:#fff;}.cls-6{fill:#868e96;stroke-width:2px;}.cls-6,.cls-8{stroke-miterlimit:10;}.cls-7{fill:#231f20;}.cls-8{stroke-width:4px;}</style></defs><g id="Fill"><polygon id="Water" class="cls-1" points="2.39 71.73 2.56 94.48 2.47 98.6 98.83 98.6 98.83 71.73 96.72 72.56 92.26 74.56 86.35 75.02 82.01 73.02 79.56 71.56 75.43 73.89 69.51 74.85 63.47 73.6 60.76 71.56 57.06 73.48 52.51 74.81 46.43 74.39 41.31 71.56 37.38 73.73 33.6 74.93 28.68 74.77 24.64 73.02 22.35 71.56 17.01 74.39 11.64 75.06 6.89 73.77 2.39 71.73"/><polygon id="Sky" class="cls-2" points="2.39 2 2.39 71.73 4.79 72.81 10.94 74.87 16.47 74.39 21.15 72.2 22.35 71.56 28.68 74.77 35.72 74.39 40.64 71.93 41.31 71.56 46.98 74.43 53.81 74.87 57.94 73.02 59.91 71.56 61.48 72.27 67.56 74.87 74.28 74.39 77.94 72.47 79.28 71.72 82.25 73.13 87.22 74.95 91.83 74.59 96.72 72.56 99.56 70.08 99.56 2 2.39 2"/></g><g id="Layer_1" data-name="Layer 1"><g id="Waves"><path class="cls-3" d="M93.86,80.24a14.37,14.37,0,0,1-9.54-3.36,13.83,13.83,0,0,1-9.54,3.36,14.33,14.33,0,0,1-9.54-3.36,13.83,13.83,0,0,1-9.55,3.36,14.37,14.37,0,0,1-9.54-3.36,13.83,13.83,0,0,1-9.54,3.36,14.33,14.33,0,0,1-9.54-3.36,13.83,13.83,0,0,1-9.55,3.36c-4.23,0-8.13-1.51-10.3-4.23a1,1,0,1,1,1.52-1.3c1.84,2.17,5.2,3.47,8.78,3.47s7.05-1.3,8.79-3.47a1,1,0,0,1,.76-.32h0a1,1,0,0,1,.75.32c1.85,2.17,5.21,3.47,8.79,3.47s7-1.3,8.78-3.47a1,1,0,0,1,.76-.32h0a1,1,0,0,1,.76.32c1.84,2.17,5.21,3.47,8.78,3.47s7.05-1.3,8.79-3.47a1,1,0,0,1,.76-.32h0a1,1,0,0,1,.76.32c1.84,2.17,5.2,3.47,8.78,3.47s7-1.3,8.78-3.47a1,1,0,0,1,.76-.32h0a1,1,0,0,1,.76.32c1.84,2.17,5.21,3.47,8.78,3.47s7-1.3,8.79-3.47a1,1,0,1,1,1.52,1.3C102,78.62,98.09,80.24,93.86,80.24Z" transform="translate(-4.83 -4.29)"/></g><g id="Satellite"><path id="Satellite-2" data-name="Satellite" class="cls-4" d="M83.65,35.76l4.29-4.3a8.28,8.28,0,0,0,1.25-10.2,2.31,2.31,0,0,0,.55-.37l4.38-4.39A2.19,2.19,0,0,0,91,13.41l-4.38,4.38a2.29,2.29,0,0,0-.38.54,8.28,8.28,0,0,0-10.19,1.25L71.78,23.9,61.29,13.41a2.2,2.2,0,0,0-1.55-.65A13.14,13.14,0,0,0,46.6,25.91a2.2,2.2,0,0,0,.64,1.55L57.73,38l-.88.89c-9.05-1.77-13.79,2.83-14,3a2.19,2.19,0,0,0,0,3.1h0L62.57,64.69a2.18,2.18,0,0,0,3.1,0h0c.2-.21,4.81-4.93,3-14l.88-.89,10.5,10.5a2.2,2.2,0,0,0,1.55.64A13.14,13.14,0,0,0,94.78,47.81a2.2,2.2,0,0,0-.64-1.55ZM79.18,22.7a4,4,0,0,1,5.67,5.66l-9.78,9.78-5.66-5.66ZM51,25a8.76,8.76,0,0,1,7.85-7.85L68.69,27l-7.86,7.85ZM63.75,59.68,47.87,43.8a13.47,13.47,0,0,1,8.57-.55l7.88,7.84A13.55,13.55,0,0,1,63.75,59.68Zm-3.1-18.44,5.66-5.66L72,41.24,66.31,46.9ZM82.51,56.53l-9.82-9.82,3.93-3.92h0l3.93-3.93,9.81,9.81A8.77,8.77,0,0,1,82.51,56.53Z" transform="translate(-4.83 -4.29)"/><path class="cls-4" d="M51,61a4.38,4.38,0,0,1-4.38-4.38,2.19,2.19,0,0,0-4.38,0A8.76,8.76,0,0,0,51,65.33,2.19,2.19,0,1,0,51,61Z" transform="translate(-4.83 -4.29)"/><path id="Satellite-3" data-name="Satellite" class="cls-5" d="M83.65,35.76l4.29-4.3a8.28,8.28,0,0,0,1.25-10.2,2.31,2.31,0,0,0,.55-.37l4.38-4.39A2.19,2.19,0,0,0,91,13.41l-4.38,4.38a2.29,2.29,0,0,0-.38.54,8.28,8.28,0,0,0-10.19,1.25L71.78,23.9,61.29,13.41a2.2,2.2,0,0,0-1.55-.65A13.14,13.14,0,0,0,46.6,25.91a2.2,2.2,0,0,0,.64,1.55L57.73,38l-.88.89c-9.05-1.77-13.79,2.83-14,3a2.19,2.19,0,0,0,0,3.1h0L62.57,64.69a2.18,2.18,0,0,0,3.1,0h0c.2-.21,4.81-4.93,3-14l.88-.89,10.5,10.5a2.2,2.2,0,0,0,1.55.64A13.14,13.14,0,0,0,94.78,47.81a2.2,2.2,0,0,0-.64-1.55ZM79.18,22.7a4,4,0,0,1,5.67,5.66l-9.78,9.78-5.66-5.66ZM51,25a8.76,8.76,0,0,1,7.85-7.85L68.69,27l-7.86,7.85ZM63.75,59.68,47.87,43.8a13.47,13.47,0,0,1,8.57-.55l7.88,7.84A13.55,13.55,0,0,1,63.75,59.68Zm-3.1-18.44,5.66-5.66L72,41.24,66.31,46.9ZM82.51,56.53l-9.82-9.82,3.93-3.92h0l3.93-3.93,9.81,9.81A8.77,8.77,0,0,1,82.51,56.53Z" transform="translate(-4.83 -4.29)"/><path class="cls-5" d="M51,61a4.38,4.38,0,0,1-4.38-4.38,2.19,2.19,0,0,0-4.38,0A8.76,8.76,0,0,0,51,65.33,2.19,2.19,0,1,0,51,61Z" transform="translate(-4.83 -4.29)"/></g><path id="Ground" class="cls-6" d="M103.22,104.13a27.28,27.28,0,0,1-2.86,0c-2.6-.2-5.08-.1-7.68-.2-1.49,0-3,.2-4.59.2-1.24,0-2.36,0-3.6.1-1.73,0-3.59,0-5.33-.1-1.12,0-2.36-.1-3.6-.1-2.35-.1-4.71.1-7.19.1-1.11,0-2.23.1-3.22.1H57.46l-5.7.3c-1.24.1-2.36,0-3.6,0-2.11,0-4.21.1-6.2,0-1.49-.1-3-.1-4.46-.2h-1a49.93,49.93,0,0,1-6.7-.1,49.75,49.75,0,0,0-5.46.1c-1.11.1-2.1,0-3.22,0-1.49,0-3,0-4.46.1s-3.1,0-4.59.2c-1.12.1-2.23-.2-3.23-.1-.24,0-.24-.1-.24-.2v-5.8c0-.2.12-.2.24-.2a2,2,0,0,1,1.48.48c.36,0,.38-.18.38-.18a1.18,1.18,0,0,1,1.37-.7,1,1,0,0,0,.74-.2,5.54,5.54,0,0,1,1.74-.9,2.47,2.47,0,0,1,3.1,1.2c0,.1.12.2.12.3.13.4.25.5.75.4a2.12,2.12,0,0,1,1.11.1c.13,0,.25.1.37-.1.75-1.1,2.11-1,3.35-.7a4.81,4.81,0,0,1,1.61.9.55.55,0,0,0,.38.1,3.85,3.85,0,0,1,3.47.1c.25.1.37.1.37-.1a2.85,2.85,0,0,1,2-2.1,5.78,5.78,0,0,1,4.47.3,1.52,1.52,0,0,1,.87,1.2c0,.3.12.3.49.2a6.75,6.75,0,0,1,2.85-.3,5,5,0,0,1,1.74.6c.25.1.37.1.5-.1a4.6,4.6,0,0,1,2.48-1.5,2.08,2.08,0,0,1,2.35,1v.2c.13.5.13.5.74.5a6.48,6.48,0,0,1,2.36.4c.37.1.5.1.62-.2a3.3,3.3,0,0,1,.62-1.1,3.38,3.38,0,0,1,3.84-.6c.13,0,.13.1.25.1a2.49,2.49,0,0,1,2.85,1.6c-.06.19,1-.6,1.62-.8a5.94,5.94,0,0,1,4.71.1.86.86,0,0,1,.49.4.33.33,0,0,0,.5,0,5.23,5.23,0,0,1,2.36-1.3,4,4,0,0,1,2.85.3c.49.3.49.2.87-.2a3.94,3.94,0,0,1,4-1.4,3.85,3.85,0,0,1,1.74.8c.12.1.25.2.25.3a1.13,1.13,0,0,0,1.11.3,4.8,4.8,0,0,1,3.72.6c.13.1.25.1.38.2.24.3.49.2.74,0a3.49,3.49,0,0,1,2.85-.4,5.25,5.25,0,0,1,1.37.4c.12.1.24,0,.37-.1a5.24,5.24,0,0,1,3.72-.9,2.23,2.23,0,0,1,1.36.5.43.43,0,0,0,.5.1A5.23,5.23,0,0,1,95.4,98a2.45,2.45,0,0,0,1.49-.2,3.21,3.21,0,0,1,3.72.4.15.15,0,0,0,.25.1,1.29,1.29,0,0,1,1.24-.3,2.15,2.15,0,0,1,1,.7s.13,0,.13.1Z" transform="translate(-4.83 -4.29)"/></g><g id="Layer_2" data-name="Layer 2"><path class="cls-7" d="M141.12,79.25a23.23,23.23,0,0,1-6-.79,13.34,13.34,0,0,1-5.37-2.84,13.59,13.59,0,0,1-3.6-4.86l9-4q1.31,3.45,6,3.45a14.9,14.9,0,0,0,2.12-.14,5.34,5.34,0,0,0,2-.76,1.87,1.87,0,0,0,1-1.69A2.84,2.84,0,0,0,144.47,65a13.37,13.37,0,0,0-3.57-1.19l-3.45-.57a20.42,20.42,0,0,1-3.42-.87,12,12,0,0,1-3.17-1.62,10.42,10.42,0,0,1-2.52-2.48,10.06,10.06,0,0,1-1.55-3.17,12.1,12.1,0,0,1-.5-3.45,11,11,0,0,1,1.29-5.19,10.14,10.14,0,0,1,3.6-3.89,15.61,15.61,0,0,1,5-2,25.66,25.66,0,0,1,5.4-.58,23.67,23.67,0,0,1,6,.79,13.43,13.43,0,0,1,5.37,2.85,13.59,13.59,0,0,1,3.6,4.86l-9,4c-.87-2.3-2.86-3.46-6-3.46a14.8,14.8,0,0,0-2.12.15,5.53,5.53,0,0,0-2.06.75,1.9,1.9,0,0,0-1,1.7,2.82,2.82,0,0,0,1.83,2.62,12.59,12.59,0,0,0,3.57,1.19l3.45.58a22,22,0,0,1,3.42.86,12.83,12.83,0,0,1,3.17,1.62A11,11,0,0,1,154.33,61a10.45,10.45,0,0,1,1.55,3.16,12.59,12.59,0,0,1,.5,3.46,10.92,10.92,0,0,1-1.29,5.18,10.07,10.07,0,0,1-3.6,3.89,15.72,15.72,0,0,1-5,2A25.79,25.79,0,0,1,141.12,79.25Z" transform="translate(-4.83 -4.29)"/><path class="cls-7" d="M172.94,79.25a12.9,12.9,0,0,1-4.53-.82,8.85,8.85,0,0,1-3.78-2.67,10.85,10.85,0,0,1-2.2-4.07,16.44,16.44,0,0,1-.65-4.6,13.63,13.63,0,0,1,.86-4.76,10.55,10.55,0,0,1,2.67-4,14,14,0,0,1,4-2.67A19.71,19.71,0,0,1,174,54.31a29.12,29.12,0,0,1,4.85-.4h3.39v-.86a3.74,3.74,0,0,0-.76-2.27,3.69,3.69,0,0,0-1.94-1.41,8.63,8.63,0,0,0-2.41-.36,8.2,8.2,0,0,0-2.52.4,4.44,4.44,0,0,0-3,3.71l-9.36-3.24a11.7,11.7,0,0,1,3-5.58,12.52,12.52,0,0,1,5.47-3.39,22,22,0,0,1,6.41-1,24.15,24.15,0,0,1,4.46.43,15.11,15.11,0,0,1,4.25,1.52,13,13,0,0,1,3.56,2.8,10.58,10.58,0,0,1,2.24,3.93,15,15,0,0,1,.68,4.43V78.68H182.23V74.5l-.07.15a10.48,10.48,0,0,1-4.07,3.42A11.83,11.83,0,0,1,172.94,79.25Zm3.6-9.07a6.69,6.69,0,0,0,3-.68,4.17,4.17,0,0,0,2.05-2.13,7.14,7.14,0,0,0,.65-3V63h-3.39a15.68,15.68,0,0,0-3,.29,6.4,6.4,0,0,0-2.74,1.26A3,3,0,0,0,171.86,67a2.58,2.58,0,0,0,.79,1.84,3.74,3.74,0,0,0,1.84,1.08A8.58,8.58,0,0,0,176.54,70.18Z" transform="translate(-4.83 -4.29)"/><path class="cls-7" d="M218.3,79.25A13.82,13.82,0,0,1,212.51,78a11.12,11.12,0,0,1-4.58-3.78,15.66,15.66,0,0,1-2.52-5.47,25.13,25.13,0,0,1-.72-6V49.59h-5.9V40.52h5.9V25.76h10.08V40.52H224v9.07h-9.22V62.77a19.73,19.73,0,0,0,.22,3,8.9,8.9,0,0,0,1,3,2.48,2.48,0,0,0,2.3,1.47,2.78,2.78,0,0,0,2.7-1.91,13.54,13.54,0,0,0,1.05-3.7l9.5,3A17.4,17.4,0,0,1,230,72.09,13.39,13.39,0,0,1,227.16,76a11.27,11.27,0,0,1-4.11,2.48A14.43,14.43,0,0,1,218.3,79.25Z" transform="translate(-4.83 -4.29)"/><path class="cls-7" d="M254.3,79.25A13.82,13.82,0,0,1,248.51,78a11.12,11.12,0,0,1-4.58-3.78,15.66,15.66,0,0,1-2.52-5.47,25.13,25.13,0,0,1-.72-6V49.59h-5.9V40.52h5.9V25.76h10.08V40.52H260v9.07h-9.22V62.77a19.73,19.73,0,0,0,.22,3,8.9,8.9,0,0,0,1,3,2.48,2.48,0,0,0,2.3,1.47,2.78,2.78,0,0,0,2.7-1.91,13.54,13.54,0,0,0,1.05-3.7l9.5,3A17.4,17.4,0,0,1,266,72.09,13.39,13.39,0,0,1,263.16,76a11.27,11.27,0,0,1-4.11,2.48A14.43,14.43,0,0,1,254.3,79.25Z" transform="translate(-4.83 -4.29)"/><path class="cls-7" d="M276.69,93.44v-.51a24.12,24.12,0,0,1,.94-7.41l2.81-8.35-7.64-20.6a35.57,35.57,0,0,1-1.29-4.39c-.34-1.48-.61-3-.83-4.5a32.65,32.65,0,0,1-.32-4.5V40.52h10.08v2.66a24.84,24.84,0,0,0,.57,5.29q.58,2.64,1.3,5.22l2.88,9.44,3.17-9.44a34,34,0,0,0,1.87-10.51V40.52h10.08v2.66a42.25,42.25,0,0,1-2.45,13.39L287.21,88.4a15.6,15.6,0,0,0-.44,4.53v.51Z" transform="translate(-4.83 -4.29)"/><path class="cls-7" d="M325.08,79.25a10.08,10.08,0,0,1-4.32-1,9,9,0,0,1-3.46-2.77c-.29-.38-.58-.79-.86-1.22v4.39H306.36V25.76h10.08V44.91c.28-.43.57-.84.86-1.22a9.06,9.06,0,0,1,3.46-2.78,10.23,10.23,0,0,1,4.32-1,10.46,10.46,0,0,1,5.33,1.48,10.75,10.75,0,0,1,4,4,17.33,17.33,0,0,1,2,5.33,28.92,28.92,0,0,1,.54,5.62v6.48a28.82,28.82,0,0,1-.54,5.61,17.15,17.15,0,0,1-2,5.33,10.78,10.78,0,0,1-4,4A10.45,10.45,0,0,1,325.08,79.25Zm-3.67-9.07A4.73,4.73,0,0,0,324.47,69a5.58,5.58,0,0,0,1.87-2.81,12.41,12.41,0,0,0,.46-3.38V56.36a12.54,12.54,0,0,0-.46-3.39,5.56,5.56,0,0,0-1.87-2.8A4.74,4.74,0,0,0,321.41,49a4,4,0,0,0-2.92,1.23,5.9,5.9,0,0,0-1.66,2.84,13.94,13.94,0,0,0-.39,3.28v6.48a13.92,13.92,0,0,0,.39,3.27A5.93,5.93,0,0,0,318.49,69,4,4,0,0,0,321.41,70.18Z" transform="translate(-4.83 -4.29)"/><path class="cls-7" d="M352.94,79.25a12.9,12.9,0,0,1-4.53-.82,8.85,8.85,0,0,1-3.78-2.67,10.85,10.85,0,0,1-2.2-4.07,16.44,16.44,0,0,1-.65-4.6,13.63,13.63,0,0,1,.86-4.76,10.55,10.55,0,0,1,2.67-4,14,14,0,0,1,4-2.67A19.71,19.71,0,0,1,354,54.31a29.12,29.12,0,0,1,4.85-.4h3.39v-.86a3.74,3.74,0,0,0-.76-2.27,3.69,3.69,0,0,0-1.94-1.41,8.63,8.63,0,0,0-2.41-.36,8.2,8.2,0,0,0-2.52.4,4.44,4.44,0,0,0-3,3.71l-9.36-3.24a11.7,11.7,0,0,1,3-5.58,12.52,12.52,0,0,1,5.47-3.39,22,22,0,0,1,6.41-1,24.15,24.15,0,0,1,4.46.43,15.11,15.11,0,0,1,4.25,1.52,13,13,0,0,1,3.56,2.8,10.58,10.58,0,0,1,2.24,3.93,15,15,0,0,1,.68,4.43V78.68H362.23V74.5l-.07.15a10.48,10.48,0,0,1-4.07,3.42A11.83,11.83,0,0,1,352.94,79.25Zm3.6-9.07a6.69,6.69,0,0,0,3-.68,4.17,4.17,0,0,0,2.05-2.13,7.14,7.14,0,0,0,.65-3V63h-3.39a15.68,15.68,0,0,0-3,.29,6.4,6.4,0,0,0-2.74,1.26A3,3,0,0,0,351.86,67a2.58,2.58,0,0,0,.79,1.84,3.74,3.74,0,0,0,1.84,1.08A8.58,8.58,0,0,0,356.54,70.18Z" transform="translate(-4.83 -4.29)"/><path class="cls-7" d="M398.3,79.25A13.82,13.82,0,0,1,392.51,78a11.12,11.12,0,0,1-4.58-3.78,15.66,15.66,0,0,1-2.52-5.47,25.13,25.13,0,0,1-.72-6V49.59h-5.9V40.52h5.9V25.76h10.08V40.52H404v9.07h-9.22V62.77a19.73,19.73,0,0,0,.22,3,8.9,8.9,0,0,0,1,3,2.48,2.48,0,0,0,2.3,1.47,2.78,2.78,0,0,0,2.7-1.91,13.54,13.54,0,0,0,1.05-3.7l9.5,3A17.4,17.4,0,0,1,410,72.09,13.39,13.39,0,0,1,407.16,76a11.27,11.27,0,0,1-4.11,2.48A14.43,14.43,0,0,1,398.3,79.25Z" transform="translate(-4.83 -4.29)"/><path class="cls-7" d="M414.36,78.68V25.76h10.08V44.91c.28-.43.57-.84.86-1.22a9.17,9.17,0,0,1,3.42-2.78,10,10,0,0,1,4.29-1,10.3,10.3,0,0,1,4.32,1,9.11,9.11,0,0,1,3.45,2.78,14.85,14.85,0,0,1,2.13,3.88A22.76,22.76,0,0,1,444,51.89a32,32,0,0,1,.32,4.47V78.68H434.23V56.36a13.45,13.45,0,0,0-.4-3.28,5.91,5.91,0,0,0-1.62-2.84,4,4,0,0,0-5.76,0,6.07,6.07,0,0,0-1.62,2.84,13.94,13.94,0,0,0-.39,3.28V78.68Z" transform="translate(-4.83 -4.29)"/><path class="cls-7" d="M456.69,93.44v-.51a24.12,24.12,0,0,1,.94-7.41l2.81-8.35-7.64-20.6a35.57,35.57,0,0,1-1.29-4.39c-.34-1.48-.61-3-.83-4.5a32.65,32.65,0,0,1-.32-4.5V40.52h10.08v2.66a24.84,24.84,0,0,0,.57,5.29q.58,2.64,1.3,5.22l2.88,9.44,3.17-9.44a34,34,0,0,0,1.87-10.51V40.52h10.08v2.66a42.25,42.25,0,0,1-2.45,13.39L467.21,88.4a15.6,15.6,0,0,0-.44,4.53v.51Z" transform="translate(-4.83 -4.29)"/></g><g id="Frame"><rect id="Frame-2" data-name="Frame" class="cls-8" x="2" y="2" width="97.72" height="97.72"/></g></svg>